<svg xmlns="http://www.w3.org/2000/svg" xmlns:xlink="http://www.w3.org/1999/xlink" viewBox="0 0 1205.92 240">
	<defs>
		<linearGradient id="d" x1="0" y1="120" x2="213" y2="120" gradientUnits="userSpaceOnUse">
			<stop offset="0" stop-color="#523a8f"/>
			<stop offset=".5" stop-color="#3562aa"/>
			<stop offset="1" stop-color="#2fafd9"/>
		</linearGradient>
	</defs>
	<g>
		<path d="m204.88,186.15l-18.32-19.93v-92.7L106.5,27.03l-17.13,10.01v151.14l-30.22-17.45V23.81c5.1-2.96,36.57-21.23,36.57-21.23,2.96-1.72,6.87-2.58,10.78-2.58s7.81.86,10.78,2.58l84.95,49.32c5.93,3.44,10.78,11.89,10.78,18.77v98.65c0,5.82-3.47,12.74-8.12,16.83Zm-78.42-66.15l39.94-43.33-25.41-14.68-51.61,58.01,60.4,67.84-43.28,25.13-80.06-46.48v-92.97l19.37-11.25v-30.71c-2.54,1.48-5.01,2.91-7.1,4.12l-27.94,16.22c-5.93,3.44-10.78,11.89-10.78,18.77v98.65c0,6.88,4.85,15.33,10.78,18.77l84.95,49.32c2.96,1.72,6.87,2.58,10.78,2.58s7.81-.86,10.78-2.58l76.5-44.42-67.32-73Z" fill="url(#d)"/>
		<path d="m271.47,76.69h17.27v88.9h-17.27v-88.9Zm18.29,43.31l34.54-43.31h20.19l-35.18,43.31,38.48,45.59h-21.84l-36.2-45.59Z"	fill="#fff"/>
		<path d="m403.32,76.72h17.27v88.9h-17.27v-88.9Z" fill="#fff"/>
		<path d="m551.91,143.14l7.62,13.59c-8.64,6.86-20.32,10.79-33.15,10.79-29.59,0-47.12-20.45-47.12-46.35s17.53-46.35,47.12-46.35c12.83,0,24.51,4.06,33.15,10.79l-7.62,13.72c-6.73-5.33-16.13-8.51-25.53-8.51-18.29,0-29.59,13.72-29.59,30.35s11.43,30.35,29.59,30.35c9.4,0,18.8-3.05,25.53-8.38Z" fill="#fff"/>
		<path d="m618.78,76.72h17.27v88.9h-17.27v-88.9Zm18.29,43.31l34.54-43.31h20.19l-35.18,43.31,38.48,45.59h-21.84l-36.2-45.59Z"	fill="#fff"/>
		<path d="m819.23,92.34h-26.42v73.28h-17.27v-73.28h-26.42v-15.62h70.1v15.62Z" fill="#fff"/>
		<path d="m937.57,165.62h-60.58v-52.83h59.94v15.24h-42.67v22.35h43.31v15.24Z" fill="#fff"/>
		<path d="m877,91.96v-15.24h59.94v15.24h-59.94Z" fill="#fff"/>
		<path d="m1038.46,118.63l26.54-41.78h16.76v88.77h-16v-64.26l-23.88,37.97h-6.86l-23.75-37.97v64.26h-16v-88.77h16.76l26.42,41.78Z" fill="#fff"/>
		<path d="m1156.9,165.62h-17.27v-88.9h35.69c18.67,0,30.61,12.83,30.61,29.21s-12.57,29.08-30.61,29.08h-18.42v30.61Zm0-73.28v27.05h17.14c9.27,0,14.48-5.71,14.48-13.59s-5.21-13.46-14.48-13.46h-17.14Z" fill="#fff"/>
		<path d="m1205.92,64.83c0,5.32-4.26,9.85-9.74,9.85s-9.74-4.53-9.74-9.85,4.26-9.85,9.74-9.85,9.74,4.53,9.74,9.85Zm-1.27,0c0-4.67-3.62-8.64-8.48-8.64s-8.5,3.97-8.5,8.64,3.62,8.66,8.5,8.66,8.48-3.97,8.48-8.66Zm-9.96,4.99h-1.67v-10.18h3.83c2.16,0,3.62,1.38,3.62,3.19,0,1.51-1.19,2.73-2.78,3.05l2.78,3.94h-1.84l-2.7-3.78h-1.24v3.78Zm0-8.72v3.46h2.08c1.32,0,2-.86,2-1.7,0-.89-.7-1.75-2-1.75h-2.08Z" fill="#fff"/>
	</g>
</svg>
